<svg xmlns="http://www.w3.org/2000/svg" id="prefix__clcck" width="18.737" height="20" viewBox="0 0 18.737 20">
    <path id="prefix__Shape" d="M9.368 20a9.019 9.019 0 0 1-6.625-2.928A10.285 10.285 0 0 1 0 10a10.284 10.284 0 0 1 2.743-7.072 8.958 8.958 0 0 1 13.25 0A10.284 10.284 0 0 1 18.737 10a10.284 10.284 0 0 1-2.744 7.072A9.021 9.021 0 0 1 9.368 20zM8.462 3.871a.47.47 0 0 0-.454.484v6.786a.5.5 0 0 0 .185.391l3.332 2.584a.436.436 0 0 0 .268.093.449.449 0 0 0 .367-.2l1.066-1.564a.508.508 0 0 0-.1-.678l-2.4-1.863V4.355a.47.47 0 0 0-.453-.484z" style="fill:#2e2e2e"/>
</svg>
